{
  "accessors": [
    {
      "bufferView": 2,
      "componentType": 5126,
      "count": 1907,
      "max": [
        -0.19742482900619507,
        0.7336871027946472,
        1.9685473442077637
      ],
      "min": [
        -1.446928858757019,
        -0.7336871027946472,
        -1.9009027481079102
      ],
      "type": "VEC3"
    },
    {
      "bufferView": 2,
      "byteOffset": 22884,
      "componentType": 5126,
      "count": 1907,
      "max": [
        1.0,
        1.0,
        1.0
      ],
      "min": [
        -1.0,
        -1.0,
        -1.0
      ],
      "type": "VEC3"
    },
    {
      "bufferView": 1,
      "componentType": 5126,
      "count": 1907,
      "max": [
        1.0,
        0.4985271692276001
      ],
      "min": [
        0.0,
        0.0
      ],
      "type": "VEC2"
    },
    {
      "bufferView": 0,
      "componentType": 5125,
      "count": 2934,
      "type": "SCALAR"
    },
    {
      "bufferView": 2,
      "byteOffset": 45768,
      "componentType": 5126,
      "count": 614,
      "max": [
        -0.9547597169876099,
        0.6605808138847351,
        0.7802527546882629
      ],
      "min": [
        -1.446928858757019,
        -0.6605808138847351,
        -1.204635500907898
      ],
      "type": "VEC3"
    },
    {
      "bufferView": 2,
      "byteOffset": 53136,
      "componentType": 5126,
      "count": 614,
      "max": [
        0.9608810544013977,
        0.9999808073043823,
        0.998311460018158
      ],
      "min": [
        -0.9992363452911377,
        -0.9999808073043823,
        -0.9999405145645142
      ],
      "type": "VEC3"
    },
    {
      "bufferView": 1,
      "byteOffset": 15256,
      "componentType": 5126,
      "count": 614,
      "max": [
        0.0,
        0.497959703207016
      ],
      "min": [
        0.0,
        0.0
      ],
      "type": "VEC2"
    },
    {
      "bufferView": 0,
      "byteOffset": 11736,
      "componentType": 5125,
      "count": 918,
      "type": "SCALAR"
    },
    {
      "bufferView": 2,
      "byteOffset": 60504,
      "componentType": 5126,
      "count": 64,
      "max": [
        -0.9718294739723206,
        0.6355533003807068,
        0.7437604069709778
      ],
      "min": [
        -1.3661222457885742,
        -0.6355533003807068,
        -1.1895512342453003
      ],
      "type": "VEC3"
    },
    {
      "bufferView": 2,
      "byteOffset": 61272,
      "componentType": 5126,
      "count": 64,
      "max": [
        0.06641747057437897,
        0.9611213803291321,
        0.8130747079849243
      ],
      "min": [
        -0.5927053689956665,
        -0.9611213803291321,
        -0.9982438087463379
      ],
      "type": "VEC3"
    },
    {
      "bufferView": 1,
      "byteOffset": 20168,
      "componentType": 5126,
      "count": 64,
      "max": [
        0.0,
        0.497959703207016
      ],
      "min": [
        0.0,
        0.0
      ],
      "type": "VEC2"
    },
    {
      "bufferView": 0,
      "byteOffset": 15408,
      "componentType": 5125,
      "count": 96,
      "type": "SCALAR"
    },
    {
      "bufferView": 2,
      "byteOffset": 62040,
      "componentType": 5126,
      "count": 1212,
      "max": [
        -0.3524538278579712,
        0.7658665776252747,
        2.013106346130371
      ],
      "min": [
        -0.9195995926856995,
        -0.7658665776252747,
        -1.9167873859405518
      ],
      "type": "VEC3"
    },
    {
      "bufferView": 2,
      "byteOffset": 76584,
      "componentType": 5126,
      "count": 1212,
      "max": [
        1.0,
        1.0,
        0.9935668706893921
      ],
      "min": [
        -1.0,
        -1.0,
        -1.0
      ],
      "type": "VEC3"
    },
    {
      "bufferView": 1,
      "byteOffset": 20680,
      "componentType": 5126,
      "count": 1212,
      "max": [
        1.0,
        1.0
      ],
      "min": [
        -0.008683690801262856,
        0.0
      ],
      "type": "VEC2"
    },
    {
      "bufferView": 0,
      "byteOffset": 15792,
      "componentType": 5125,
      "count": 1932,
      "type": "SCALAR"
    },
    {
      "bufferView": 2,
      "byteOffset": 91128,
      "componentType": 5126,
      "count": 32,
      "max": [
        -0.6217766404151917,
        0.6442223191261292,
        1.868396282196045
      ],
      "min": [
        -0.7926742434501648,
        -0.6442223191261292,
        1.831612229347229
      ],
      "type": "VEC3"
    },
    {
      "bufferView": 2,
      "byteOffset": 91512,
      "componentType": 5126,
      "count": 32,
      "max": [
        -0.02606187015771866,
        0.2104196399450302,
        0.9939121007919312
      ],
      "min": [
        -0.3438326120376587,
        -0.2104196399450302,
        0.9207013845443726
      ],
      "type": "VEC3"
    },
    {
      "bufferView": 1,
      "byteOffset": 30376,
      "componentType": 5126,
      "count": 32,
      "max": [
        0.3737660050392151,
        0.0
      ],
      "min": [
        0.04488028958439827,
        0.0
      ],
      "type": "VEC2"
    },
    {
      "bufferView": 0,
      "byteOffset": 23520,
      "componentType": 5125,
      "count": 48,
      "type": "SCALAR"
    },
    {
      "bufferView": 2,
      "byteOffset": 91896,
      "componentType": 5126,
      "count": 484,
      "max": [
        -0.19742482900619507,
        0.7336871027946472,
        1.8524571657180786
      ],
      "min": [
        -0.6383797526359558,
        -0.7336871027946472,
        -1.867504596710205
      ],
      "type": "VEC3"
    },
    {
      "bufferView": 2,
      "byteOffset": 97704,
      "componentType": 5126,
      "count": 484,
      "max": [
        1.0,
        1.0,
        0.9512162208557129
      ],
      "min": [
        -0.004915403667837381,
        -1.0,
        -1.0
      ],
      "type": "VEC3"
    },
    {
      "bufferView": 1,
      "byteOffset": 30632,
      "componentType": 5126,
      "count": 484,
      "max": [
        1.0000001192092896,
        0.4979596734046936
      ],
      "min": [
        0.0,
        0.0
      ],
      "type": "VEC2"
    },
    {
      "bufferView": 0,
      "byteOffset": 23712,
      "componentType": 5125,
      "count": 768,
      "type": "SCALAR"
    },
    {
      "bufferView": 2,
      "byteOffset": 103512,
      "componentType": 5126,
      "count": 10,
      "max": [
        -0.7403212189674377,
        0.6856949925422668,
        -1.8511470556259155
      ],
      "min": [
        -0.8748536109924316,
        -0.6856949925422668,
        -1.857418179512024
      ],
      "type": "VEC3"
    },
    {
      "bufferView": 2,
      "byteOffset": 103632,
      "componentType": 5126,
      "count": 10,
      "max": [
        0.021832890808582306,
        0.019458090886473656,
        -0.9995722770690918
      ],
      "min": [
        0.021832885220646858,
        -0.019458765164017677,
        -0.9995722770690918
      ],
      "type": "VEC3"
    },
    {
      "bufferView": 1,
      "byteOffset": 34504,
      "componentType": 5126,
      "count": 10,
      "max": [
        0.0,
        0.4979596734046936
      ],
      "min": [
        0.0,
        0.49795958399772644
      ],
      "type": "VEC2"
    },
    {
      "bufferView": 0,
      "byteOffset": 26784,
      "componentType": 5125,
      "count": 18,
      "type": "SCALAR"
    },
    {
      "bufferView": 2,
      "byteOffset": 103752,
      "componentType": 5126,
      "count": 32,
      "max": [
        -0.5772683620452881,
        0.6951587200164795,
        -1.8666881322860718
      ],
      "min": [
        -0.6883836388587952,
        -0.6951587200164795,
        -1.8880411386489868
      ],
      "type": "VEC3"
    },
    {
      "bufferView": 2,
      "byteOffset": 104136,
      "componentType": 5126,
      "count": 32,
      "max": [
        -0.1887151002883911,
        1.8903667751146713e-06,
        -0.9820314049720764
      ],
      "min": [
        -0.1887178122997284,
        -1.8903667751146713e-06,
        -0.9820318818092346
      ],
      "type": "VEC3"
    },
    {
      "bufferView": 1,
      "byteOffset": 34584,
      "componentType": 5126,
      "count": 32,
      "max": [
        0.35229894518852234,
        0.4979596436023712
      ],
      "min": [
        0.06633324176073074,
        0.49795958399772644
      ],
      "type": "VEC2"
    },
    {
      "bufferView": 0,
      "byteOffset": 26856,
      "componentType": 5125,
      "count": 48,
      "type": "SCALAR"
    },
    {
      "bufferView": 2,
      "byteOffset": 104520,
      "componentType": 5126,
      "count": 32,
      "max": [
        -0.4568030536174774,
        0.6389109492301941,
        1.9488756656646729
      ],
      "min": [
        -0.6969577670097351,
        -0.6389109492301941,
        -1.8692175149917603
      ],
      "type": "VEC3"
    },
    {
      "bufferView": 2,
      "byteOffset": 104904,
      "componentType": 5126,
      "count": 32,
      "max": [
        -0.13365384936332703,
        0.13687220215797424,
        0.9873430132865906
      ],
      "min": [
        -0.18892739713191986,
        -0.13687220215797424,
        -0.9840133190155029
      ],
      "type": "VEC3"
    },
    {
      "bufferView": 1,
      "byteOffset": 34840,
      "componentType": 5126,
      "count": 32,
      "max": [
        0.6287633776664734,
        0.4979596436023712
      ],
      "min": [
        0.07783778011798859,
        0.0
      ],
      "type": "VEC2"
    },
    {
      "bufferView": 0,
      "byteOffset": 27048,
      "componentType": 5125,
      "count": 48,
      "type": "SCALAR"
    },
    {
      "bufferView": 2,
      "byteOffset": 105288,
      "componentType": 5126,
      "count": 4382,
      "max": [
        0.10146844387054443,
        0.2953433394432068,
        2.60465669631958
      ],
      "min": [
        -1.3696616888046265,
        -0.2953433394432068,
        -0.295343279838562
      ],
      "type": "VEC3"
    },
    {
      "bufferView": 2,
      "byteOffset": 157872,
      "componentType": 5126,
      "count": 4382,
      "max": [
        1.0,
        0.9807853698730469,
        0.9807857275009155
      ],
      "min": [
        -1.0,
        -0.9807853698730469,
        -0.9807856678962708
      ],
      "type": "VEC3"
    },
    {
      "bufferView": 1,
      "byteOffset": 35096,
      "componentType": 5126,
      "count": 4382,
      "max": [
        1.0,
        0.8889457583427429
      ],
      "min": [
        -0.0022298027761280537,
        -0.0022225454449653625
      ],
      "type": "VEC2"
    },
    {
      "bufferView": 0,
      "byteOffset": 27240,
      "componentType": 5125,
      "count": 6696,
      "type": "SCALAR"
    },
    {
      "bufferView": 2,
      "byteOffset": 210456,
      "componentType": 5126,
      "count": 2296,
      "max": [
        0.08463780581951141,
        0.16198888421058655,
        2.4713022708892822
      ],
      "min": [
        -1.3528310060501099,
        -0.16198892891407013,
        -0.16198885440826416
      ],
      "type": "VEC3"
    },
    {
      "bufferView": 2,
      "byteOffset": 238008,
      "componentType": 5126,
      "count": 2296,
      "max": [
        1.0,
        0.687152087688446,
        0.6871568560600281
      ],
      "min": [
        -1.0,
        -0.6871523261070251,
        -0.6871564984321594
      ],
      "type": "VEC3"
    },
    {
      "bufferView": 1,
      "byteOffset": 70152,
      "componentType": 5126,
      "count": 2296,
      "max": [
        0.382335901260376,
        0.3823356628417969
      ],
      "min": [
        0.11766410619020462,
        0.1176641434431076
      ],
      "type": "VEC2"
    },
    {
      "bufferView": 0,
      "byteOffset": 54024,
      "componentType": 5125,
      "count": 4176,
      "type": "SCALAR"
    },
    {
      "bufferView": 2,
      "byteOffset": 265560,
      "componentType": 5126,
      "count": 36,
      "max": [
        1.0,
        0.030429836362600327,
        -0.17216499149799347
      ],
      "min": [
        -1.0,
        -6.890016113203501e-09,
        -1.0
      ],
      "type": "VEC3"
    },
    {
      "bufferView": 2,
      "byteOffset": 265992,
      "componentType": 5126,
      "count": 36,
      "max": [
        1.0,
        1.0,
        1.0
      ],
      "min": [
        -1.0,
        -1.0,
        -1.0
      ],
      "type": "VEC3"
    },
    {
      "bufferView": 1,
      "byteOffset": 88520,
      "componentType": 5126,
      "count": 36,
      "max": [
        1.0,
        1.0
      ],
      "min": [
        0.0,
        0.0
      ],
      "type": "VEC2"
    },
    {
      "bufferView": 0,
      "byteOffset": 70728,
      "componentType": 5125,
      "count": 54,
      "type": "SCALAR"
    },
    {
      "bufferView": 2,
      "byteOffset": 266424,
      "componentType": 5126,
      "count": 4,
      "max": [
        0.9410362839698792,
        0.030429836362600327,
        -0.2311287224292755
      ],
      "min": [
        -0.9410362839698792,
        0.03042983077466488,
        -0.9410362839698792
      ],
      "type": "VEC3"
    },
    {
      "bufferView": 2,
      "byteOffset": 266472,
      "componentType": 5126,
      "count": 4,
      "max": [
        0.0,
        1.0,
        7.871356899613602e-09
      ],
      "min": [
        0.0,
        1.0,
        7.871356899613602e-09
      ],
      "type": "VEC3"
    },
    {
      "bufferView": 1,
      "byteOffset": 88808,
      "componentType": 5126,
      "count": 4,
      "max": [
        0.9705181121826172,
        0.9287736415863037
      ],
      "min": [
        0.029481859877705574,
        0.07122641801834106
      ],
      "type": "VEC2"
    },
    {
      "bufferView": 0,
      "byteOffset": 70944,
      "componentType": 5125,
      "count": 6,
      "type": "SCALAR"
    }
  ],
  "asset": {
    "extras": {
      "author": "sudeepsingh (https://sketchfab.com/sudeepsingh)",
      "license": "CC-BY-4.0 (http://creativecommons.org/licenses/by/4.0/)",
      "source": "https://sketchfab.com/3d-models/ford-angila-low-poly-car-228fefd21ff74e58bc52c866614d2108",
      "title": "Ford Angila | Low Poly Car"
    },
    "generator": "Sketchfab-12.65.0",
    "version": "2.0"
  },
  "bufferViews": [
    {
      "buffer": 0,
      "byteLength": 70968,
      "name": "floatBufferViews",
      "target": 34963
    },
    {
      "buffer": 0,
      "byteLength": 88840,
      "byteOffset": 70968,
      "byteStride": 8,
      "name": "floatBufferViews",
      "target": 34962
    },
    {
      "buffer": 0,
      "byteLength": 266520,
      "byteOffset": 159808,
      "byteStride": 12,
      "name": "floatBufferViews",
      "target": 34962
    }
  ],
  "buffers": [
    {
      "byteLength": 426328,
      "uri": "scene.bin"
    }
  ],
  "materials": [
    {
      "doubleSided": true,
      "name": "Body",
      "pbrMetallicRoughness": {
        "baseColorFactor": [
          0.0029953099999999997,
          0.25133399999999984,
          0.9169369999999997,
          1.0
        ],
        "metallicFactor": 0.317199,
        "roughnessFactor": 0.23359147421202153
      }
    },
    {
      "doubleSided": true,
      "name": "Ubody",
      "pbrMetallicRoughness": {
        "baseColorFactor": [
          0.8666754938916336,
          0.8666754938916336,
          0.8666754938916336,
          1.0
        ],
        "metallicFactor": 0.157895,
        "roughnessFactor": 0.3671174085900941
      }
    },
    {
      "alphaMode": "BLEND",
      "doubleSided": true,
      "name": "Glass",
      "pbrMetallicRoughness": {
        "baseColorFactor": [
          0.0215075972808517,
          0.06513779803823508,
          0.07860761206587301,
          0.9788361486621849
        ],
        "roughnessFactor": 0.0
      }
    },
    {
      "doubleSided": true,
      "name": "Metal-Steel",
      "pbrMetallicRoughness": {
        "baseColorFactor": [
          0.8,
          0.8,
          0.8,
          1.0
        ],
        "roughnessFactor": 0.03201588670857908
      }
    },
    {
      "doubleSided": true,
      "emissiveFactor": [
        1.0,
        1.0,
        1.0
      ],
      "name": "Light-White"
    },
    {
      "doubleSided": true,
      "name": "Engine-black",
      "pbrMetallicRoughness": {
        "baseColorFactor": [
          0.0120371,
          0.0120371,
          0.0120371,
          1.0
        ],
        "metallicFactor": 0.0,
        "roughnessFactor": 0.5
      }
    },
    {
      "doubleSided": true,
      "emissiveFactor": [
        1.0,
        1.0,
        0.0
      ],
      "name": "LIght-Oranve"
    },
    {
      "doubleSided": true,
      "emissiveFactor": [
        1.0,
        0.14981665602238234,
        0.046101352295990244
      ],
      "name": "Light-red"
    },
    {
      "doubleSided": true,
      "name": "Gray",
      "pbrMetallicRoughness": {
        "baseColorFactor": [
          0.112148,
          0.112148,
          0.112148,
          1.0
        ],
        "metallicFactor": 0.0,
        "roughnessFactor": 0.931193
      }
    },
    {
      "doubleSided": true,
      "name": "Tyre",
      "pbrMetallicRoughness": {
        "baseColorFactor": [
          0.018903196410383696,
          0.017615231580327958,
          0.017615231580327958,
          1.0
        ],
        "metallicFactor": 0.0
      }
    },
    {
      "doubleSided": true,
      "name": "Material",
      "pbrMetallicRoughness": {
        "baseColorFactor": [
          0.31648491643643206,
          0.29536562818641304,
          0.29536562818641304,
          1.0
        ],
        "metallicFactor": 0.5479115422602233,
        "roughnessFactor": 0.7421310831737834
      }
    }
  ],
  "meshes": [
    {
      "name": "Object_0",
      "primitives": [
        {
          "attributes": {
            "NORMAL": 1,
            "POSITION": 0,
            "TEXCOORD_0": 2
          },
          "indices": 3,
          "material": 0,
          "mode": 4
        }
      ]
    },
    {
      "name": "Object_1",
      "primitives": [
        {
          "attributes": {
            "NORMAL": 5,
            "POSITION": 4,
            "TEXCOORD_0": 6
          },
          "indices": 7,
          "material": 1,
          "mode": 4
        }
      ]
    },
    {
      "name": "Object_2",
      "primitives": [
        {
          "attributes": {
            "NORMAL": 9,
            "POSITION": 8,
            "TEXCOORD_0": 10
          },
          "indices": 11,
          "material": 2,
          "mode": 4
        }
      ]
    },
    {
      "name": "Object_3",
      "primitives": [
        {
          "attributes": {
            "NORMAL": 13,
            "POSITION": 12,
            "TEXCOORD_0": 14
          },
          "indices": 15,
          "material": 3,
          "mode": 4
        }
      ]
    },
    {
      "name": "Object_4",
      "primitives": [
        {
          "attributes": {
            "NORMAL": 17,
            "POSITION": 16,
            "TEXCOORD_0": 18
          },
          "indices": 19,
          "material": 4,
          "mode": 4
        }
      ]
    },
    {
      "name": "Object_5",
      "primitives": [
        {
          "attributes": {
            "NORMAL": 21,
            "POSITION": 20,
            "TEXCOORD_0": 22
          },
          "indices": 23,
          "material": 5,
          "mode": 4
        }
      ]
    },
    {
      "name": "Object_6",
      "primitives": [
        {
          "attributes": {
            "NORMAL": 25,
            "POSITION": 24,
            "TEXCOORD_0": 26
          },
          "indices": 27,
          "material": 6,
          "mode": 4
        }
      ]
    },
    {
      "name": "Object_7",
      "primitives": [
        {
          "attributes": {
            "NORMAL": 29,
            "POSITION": 28,
            "TEXCOORD_0": 30
          },
          "indices": 31,
          "material": 7,
          "mode": 4
        }
      ]
    },
    {
      "name": "Object_8",
      "primitives": [
        {
          "attributes": {
            "NORMAL": 33,
            "POSITION": 32,
            "TEXCOORD_0": 34
          },
          "indices": 35,
          "material": 8,
          "mode": 4
        }
      ]
    },
    {
      "name": "Object_9",
      "primitives": [
        {
          "attributes": {
            "NORMAL": 37,
            "POSITION": 36,
            "TEXCOORD_0": 38
          },
          "indices": 39,
          "material": 9,
          "mode": 4
        }
      ]
    },
    {
      "name": "Object_10",
      "primitives": [
        {
          "attributes": {
            "NORMAL": 41,
            "POSITION": 40,
            "TEXCOORD_0": 42
          },
          "indices": 43,
          "material": 3,
          "mode": 4
        }
      ]
    },
    {
      "name": "Object_11",
      "primitives": [
        {
          "attributes": {
            "NORMAL": 45,
            "POSITION": 44,
            "TEXCOORD_0": 46
          },
          "indices": 47,
          "material": 9,
          "mode": 4
        }
      ]
    },
    {
      "name": "Object_12",
      "primitives": [
        {
          "attributes": {
            "NORMAL": 49,
            "POSITION": 48,
            "TEXCOORD_0": 50
          },
          "indices": 51,
          "material": 10,
          "mode": 4
        }
      ]
    }
  ],
  "nodes": [
    {
      "children": [
        1
      ],
      "matrix": [
        1.0,
        0.0,
        0.0,
        0.0,
        0.0,
        2.220446049250313e-16,
        -1.0,
        0.0,
        0.0,
        1.0,
        2.220446049250313e-16,
        0.0,
        0.0,
        0.0,
        0.0,
        1.0
      ],
      "name": "Sketchfab_model"
    },
    {
      "children": [
        2
      ],
      "name": "root"
    },
    {
      "children": [
        3,
        13,
        16
      ],
      "matrix": [
        1.0,
        0.0,
        0.0,
        0.0,
        0.0,
        2.220446049250313e-16,
        1.0,
        0.0,
        0.0,
        -1.0,
        2.220446049250313e-16,
        0.0,
        0.0,
        0.0,
        0.0,
        1.0
      ],
      "name": "GLTF_SceneRootNode"
    },
    {
      "children": [
        4,
        5,
        6,
        7,
        8,
        9,
        10,
        11,
        12
      ],
      "matrix": [
        8.429369480200677e-08,
        -0.9999999999999966,
        -0.0,
        0.0,
        0.9999999999999966,
        8.429369480200677e-08,
        0.0,
        0.0,
        0.0,
        -0.0,
        1.0,
        0.0,
        0.0,
        0.0,
        0.0,
        1.0
      ],
      "name": "car_1"
    },
    {
      "mesh": 0,
      "name": "Object_4"
    },
    {
      "mesh": 1,
      "name": "Object_5"
    },
    {
      "mesh": 2,
      "name": "Object_6"
    },
    {
      "mesh": 3,
      "name": "Object_7"
    },
    {
      "mesh": 4,
      "name": "Object_8"
    },
    {
      "mesh": 5,
      "name": "Object_9"
    },
    {
      "mesh": 6,
      "name": "Object_10"
    },
    {
      "mesh": 7,
      "name": "Object_11"
    },
    {
      "mesh": 8,
      "name": "Object_12"
    },
    {
      "children": [
        14,
        15
      ],
      "matrix": [
        1.0,
        0.0,
        0.0,
        0.0,
        0.0,
        1.0,
        0.0,
        0.0,
        0.0,
        0.0,
        1.0,
        0.0,
        0.634096622467041,
        0.29681989550590515,
        -1.0331922769546509,
        1.0
      ],
      "name": "Tyre_2"
    },
    {
      "mesh": 9,
      "name": "Object_14"
    },
    {
      "mesh": 10,
      "name": "Object_15"
    },
    {
      "children": [
        17,
        18
      ],
      "matrix": [
        0.2240041345357895,
        0.0,
        0.0,
        0.0,
        0.0,
        0.0,
        1.0,
        0.0,
        0.0,
        -0.16891831159591675,
        0.0,
        0.0,
        -0.026894256472587585,
        0.31076857447624207,
        1.9819622039794922,
        1.0
      ],
      "name": "Plane_3"
    },
    {
      "mesh": 11,
      "name": "Object_17"
    },
    {
      "mesh": 12,
      "name": "Object_18"
    }
  ],
  "scene": 0,
  "scenes": [
    {
      "name": "Sketchfab_Scene",
      "nodes": [
        0
      ]
    }
  ]
}
